<?xml version="1.0" standalone="no"?>
<!DOCTYPE svg PUBLIC "-//W3C//DTD SVG 20010904//EN"
 "http://www.w3.org/TR/2001/REC-SVG-20010904/DTD/svg10.dtd">
<svg version="1.0" xmlns="http://www.w3.org/2000/svg"
 width="50.000000pt" height="50.000000pt" viewBox="0 0 50.000000 50.000000"
 preserveAspectRatio="xMidYMid meet">

<g transform="translate(0.000000,50.000000) scale(0.100000,-0.100000)"
fill="#000000" stroke="none">
<path d="M92 418 c0 -29 -3 -128 -6 -219 l-6 -166 38 -7 c48 -8 216 -8 264 0
l37 6 -5 167 c-3 91 -6 190 -6 219 l0 52 -158 0 -158 0 0 -52z m294 16 c-3 -9
-6 -18 -6 -20 0 -2 -58 -4 -130 -4 -72 0 -130 2 -130 4 0 2 -3 11 -6 20 -5 14
10 16 136 16 126 0 141 -2 136 -16z m0 -61 c4 -10 8 -86 10 -170 3 -178 16
-163 -146 -163 -113 0 -153 6 -147 23 2 6 36 9 85 8 53 -1 82 2 82 8 0 7 -28
11 -74 11 -99 0 -100 1 -93 148 3 64 8 125 12 135 6 15 23 17 135 17 112 0
129 -2 136 -17z"/>
<path d="M167 333 c-11 -10 -8 -58 3 -69 6 -6 6 -21 -2 -42 -17 -43 -3 -63 53
-80 39 -12 49 -12 82 1 44 19 54 39 39 81 -8 20 -8 34 -2 40 13 13 13 63 0 71
-6 4 -18 1 -26 -6 -21 -17 -102 -18 -116 -2 -12 14 -21 16 -31 6z m33 -44 c0
-5 -4 -9 -10 -9 -5 0 -10 7 -10 16 0 8 5 12 10 9 6 -3 10 -10 10 -16z m126 -6
c-10 -10 -19 5 -10 18 6 11 8 11 12 0 2 -7 1 -15 -2 -18z m-17 -36 c29 -57 23
-76 -27 -89 -33 -9 -102 12 -102 30 0 12 37 96 47 105 4 4 18 7 32 5 18 -2 31
-16 50 -51z"/>
<path d="M228 239 c-45 -26 5 -84 51 -60 26 15 27 47 2 61 -24 12 -31 12 -53
-1z m22 -29 c0 -5 -4 -10 -10 -10 -5 0 -10 5 -10 10 0 6 5 10 10 10 6 0 10 -4
10 -10z m30 0 c0 -5 -4 -10 -10 -10 -5 0 -10 5 -10 10 0 6 5 10 10 10 6 0 10
-4 10 -10z"/>
</g>
</svg>
